<?xml version="1.0" encoding="UTF-8"?>
<svg version="1.1" xmlns="http://www.w3.org/2000/svg" width="48" height="48">
<path d="M0 0 C0.3367103 8.96023511 -0.97102824 16.56215009 -4 25 C-2.68 25.33 -1.36 25.66 0 26 C-1.20381448 28.49361571 -2.45428722 30.68143083 -4 33 C-4.66158043 35.04584079 -4.66158043 35.04584079 -5.125 37.1875 C-5.558125 39.0746875 -5.558125 39.0746875 -6 41 C-6.969375 41.12375 -7.93875 41.2475 -8.9375 41.375 C-9.948125 41.58125 -10.95875 41.7875 -12 42 C-12.33 42.66 -12.66 43.32 -13 44 C-13 43.34 -13 42.68 -13 42 C-13.82242188 42.17917969 -14.64484375 42.35835937 -15.4921875 42.54296875 C-23.21485698 44.01437806 -28.71722722 44.05777819 -36 41 C-36.33 41.66 -36.66 42.32 -37 43 C-38.32 42.34 -39.64 41.68 -41 41 C-40.97679687 40.31292969 -40.95359375 39.62585937 -40.9296875 38.91796875 C-40.91164063 38.01691406 -40.89359375 37.11585937 -40.875 36.1875 C-40.85179687 35.29417969 -40.82859375 34.40085938 -40.8046875 33.48046875 C-40.81714173 30.74597286 -40.81714173 30.74597286 -43 28 C-43.16015625 25.3359375 -43.16015625 25.3359375 -43.0625 22.375 C-43.00844179 20.58402787 -42.97957378 18.79167135 -43 17 C-43.33 16.67 -43.66 16.34 -44 16 C-44.09909302 13.66839945 -44.12970504 11.33370058 -44.125 9 C-44.12757812 7.72125 -44.13015625 6.4425 -44.1328125 5.125 C-44 2 -44 2 -43 1 C-41.109375 1.05078125 -41.109375 1.05078125 -38.75 1.3125 C-37.98171875 1.39113281 -37.2134375 1.46976562 -36.421875 1.55078125 C-34 2 -34 2 -31.53125 3.0234375 C-24.76973362 5.63204721 -17.57845112 4.22776232 -11.00390625 1.734375 C-7.37023452 0.40273702 -3.84456648 0 0 0 Z " fill="#3C3534" transform="translate(47,2)"/>
<path d="M0 0 C0.3367103 8.96023511 -0.97102824 16.56215009 -4 25 C-2.68 25.33 -1.36 25.66 0 26 C-1.02620862 28.2102955 -2.05716794 30.07317497 -3.5625 32 C-5.03193986 34.04443806 -5.56164648 35.54522028 -6 38 C-6.99 38 -7.98 38 -9 38 C-9 37.01 -9 36.02 -9 35 C-11.81872737 35.38878998 -12.77195598 35.70810365 -14.5625 38 C-15.036875 38.66 -15.51125 39.32 -16 40 C-21.22358692 41.74119564 -28.01033532 42.45004336 -33.0859375 39.98828125 C-35.6880124 37.87488871 -36.9382043 36.18538711 -38 33 C-38.12781786 30.32605036 -38.04391871 27.67904143 -38 25 C-37.34 25.33 -36.68 25.66 -36 26 C-36 27.32 -36 28.64 -36 30 C-34.02 30.33 -32.04 30.66 -30 31 C-29.86722656 30.42765625 -29.73445313 29.8553125 -29.59765625 29.265625 C-29.00619683 27.02349125 -28.26711146 24.91420381 -27.4375 22.75 C-27.16808594 22.04359375 -26.89867187 21.3371875 -26.62109375 20.609375 C-26.41613281 20.07828125 -26.21117187 19.5471875 -26 19 C-25.7525 19.5775 -25.505 20.155 -25.25 20.75 C-24.06009525 23.13449889 -24.06009525 23.13449889 -21.875 25.125 C-20 27 -20 27 -20 29 C-19.01 29 -18.02 29 -17 29 C-16.67 28.01 -16.34 27.02 -16 26 C-17.65 26 -19.3 26 -21 26 C-21 24.35 -21 22.7 -21 21 C-20.01 21.33 -19.02 21.66 -18 22 C-18 22.99 -18 23.98 -18 25 C-17.4225 24.814375 -16.845 24.62875 -16.25 24.4375 C-13.79307475 23.95976454 -12.35602466 24.24270636 -10 25 C-10 25.66 -10 26.32 -10 27 C-9.01 26.67 -8.02 26.34 -7 26 C-7.01160156 25.31292969 -7.02320312 24.62585938 -7.03515625 23.91796875 C-7.04417969 23.01691406 -7.05320312 22.11585937 -7.0625 21.1875 C-7.07410156 20.29417969 -7.08570312 19.40085937 -7.09765625 18.48046875 C-7 16 -7 16 -6 13 C-6.66 13 -7.32 13 -8 13 C-8.598125 12.21625 -9.19625 11.4325 -9.8125 10.625 C-12.12440644 7.85071227 -13.60508111 7.03733633 -17 6 C-16.67 5.01 -16.34 4.02 -16 3 C-13.1640625 2.05078125 -13.1640625 2.05078125 -9.625 1.3125 C-7.88089844 0.93544922 -7.88089844 0.93544922 -6.1015625 0.55078125 C-3 0 -3 0 0 0 Z " fill="#421D1F" transform="translate(47,2)"/>
<path d="M0 0 C0.2475 0.5775 0.495 1.155 0.75 1.75 C1.93990475 4.13449889 1.93990475 4.13449889 4.125 6.125 C6 8 6 8 6 10 C6.99 10 7.98 10 9 10 C9.66 9.34 10.32 8.68 11 8 C11.85144652 10.55433955 12.24493984 12.35877821 12.375 15 C12.42398438 15.680625 12.47296875 16.36125 12.5234375 17.0625 C12 19 12 19 9.84765625 20.71875 C4.98611374 22.90611069 0.21878736 22.76871327 -5 22 C-7.78947635 20.63147871 -8.91941387 19.41797848 -11 17 C-12.28317892 13.15046324 -12.06643637 10.05261865 -12 6 C-11.01 6.495 -11.01 6.495 -10 7 C-10 8.32 -10 9.64 -10 11 C-7.03 11.495 -7.03 11.495 -4 12 C-3.86722656 11.42765625 -3.73445313 10.8553125 -3.59765625 10.265625 C-3.00619683 8.02349125 -2.26711146 5.91420381 -1.4375 3.75 C-1.16808594 3.04359375 -0.89867187 2.3371875 -0.62109375 1.609375 C-0.41613281 1.07828125 -0.21117187 0.5471875 0 0 Z " fill="#E5D3C8" transform="translate(21,21)"/>
<path d="M0 0 C1 2 1 2 0.0625 5.125 C-0.4634375 6.548125 -0.4634375 6.548125 -1 8 C-1.969375 8.12375 -2.93875 8.2475 -3.9375 8.375 C-4.948125 8.58125 -5.95875 8.7875 -7 9 C-7.33 9.66 -7.66 10.32 -8 11 C-8 10.34 -8 9.68 -8 9 C-9.23363281 9.26876953 -9.23363281 9.26876953 -10.4921875 9.54296875 C-18.21485698 11.01437806 -23.71722722 11.05777819 -31 8 C-31.33 8.66 -31.66 9.32 -32 10 C-33.32 9.34 -34.64 8.68 -36 8 C-35.67 6.68 -35.34 5.36 -35 4 C-34.01 5.485 -34.01 5.485 -33 7 C-32.21625 6.814375 -31.4325 6.62875 -30.625 6.4375 C-28 6 -28 6 -26 7 C-24.04450744 7.12257461 -22.08429382 7.17552388 -20.125 7.1875 C-19.07570313 7.20167969 -18.02640625 7.21585938 -16.9453125 7.23046875 C-13.19517284 6.93702281 -11.03612228 6.07756717 -8.4375 3.375 C-7 2 -7 2 -4 2 C-4 2.99 -4 3.98 -4 5 C-3.01 5 -2.02 5 -1 5 C-0.67 3.35 -0.34 1.7 0 0 Z " fill="#201A18" transform="translate(42,35)"/>
<path d="M0 0 C1.21236328 0.01353516 1.21236328 0.01353516 2.44921875 0.02734375 C3.37154297 0.04474609 3.37154297 0.04474609 4.3125 0.0625 C5.91039351 5.01596987 4.59556814 9.19532415 3.3125 14.0625 C2.9825 13.0725 2.6525 12.0825 2.3125 11.0625 C1.6525 11.0625 0.9925 11.0625 0.3125 11.0625 C-0.285625 10.27875 -0.88375 9.495 -1.5 8.6875 C-3.81190644 5.91321227 -5.29258111 5.09983633 -8.6875 4.0625 C-8.3575 3.0725 -8.0275 2.0825 -7.6875 1.0625 C-4.80538698 0.10179566 -2.98899956 -0.04331883 0 0 Z " fill="#7C2C29" transform="translate(38.6875,3.9375)"/>
<path d="M0 0 C0.99 0.33 1.98 0.66 3 1 C3 1.99 3 2.98 3 4 C3.5775 3.814375 4.155 3.62875 4.75 3.4375 C7.20692525 2.95976454 8.64397534 3.24270636 11 4 C11 4.66 11 5.32 11 6 C12.32 6 13.64 6 15 6 C14.8125 8.8125 14.8125 8.8125 14 12 C11.59196729 13.85233285 10.07258075 15 7 15 C6.34 12.03 5.68 9.06 5 6 C3.35 5.67 1.7 5.34 0 5 C0 3.35 0 1.7 0 0 Z " fill="#744646" transform="translate(26,23)"/>
<path d="M0 0 C1.2065625 0.0309375 1.2065625 0.0309375 2.4375 0.0625 C2.29673685 2.0212043 2.1497324 3.97946093 2 5.9375 C1.91878906 7.02804688 1.83757813 8.11859375 1.75390625 9.2421875 C1.4375 12.0625 1.4375 12.0625 0.4375 14.0625 C0.71692455 15.73904729 1.04578247 17.40858154 1.4375 19.0625 C-0.5625 19.0625 -0.5625 19.0625 -2.171875 17.51171875 C-4.06055391 14.18530955 -3.89125952 11.67514707 -3.8125 7.875 C-3.78929687 5.99748047 -3.78929687 5.99748047 -3.765625 4.08203125 C-3.49676251 0.08528689 -3.49676251 0.08528689 0 0 Z " fill="#544244" transform="translate(6.5625,2.9375)"/>
<path d="M0 0 C6.75 0.875 6.75 0.875 9 2 C9 2.66 9 3.32 9 4 C8.34 4 7.68 4 7 4 C7 4.66 7 5.32 7 6 C6.34 6 5.68 6 5 6 C4.7525 6.598125 4.505 7.19625 4.25 7.8125 C2.81927475 10.31626919 1.4308418 11.48072388 -1 13 C-1.66 13 -2.32 13 -3 13 C-2.17812739 8.61667943 -1.09845718 4.32059823 0 0 Z " fill="#6D312D" transform="translate(9,4)"/>
<path d="M0 0 C0 1.65 0 3.3 0 5 C0.33 3.35 0.66 1.7 1 0 C2.5625 1.6875 2.5625 1.6875 4 4 C3.6875 6.75 3.6875 6.75 3 9 C0.03 8.505 0.03 8.505 -3 8 C-3.66 6.02 -4.32 4.04 -5 2 C-1.125 0 -1.125 0 0 0 Z " fill="#987164" transform="translate(14,24)"/>
<path d="M0 0 C0.66 0 1.32 0 2 0 C2.19310138 6.08269361 2.27326273 12.2499825 0 18 C-0.99 18.66 -1.98 19.32 -3 20 C-2.01 13.4 -1.02 6.8 0 0 Z " fill="#7E7A7D" transform="translate(45,3)"/>
<path d="M0 0 C0.99 0.33 1.98 0.66 3 1 C2.34 3.31 1.68 5.62 1 8 C2.65 8 4.3 8 6 8 C5.67 9.32 5.34 10.64 5 12 C2.5625 11.25 2.5625 11.25 0 10 C-1.66001303 6.67997395 -0.72024357 3.52119078 0 0 Z " fill="#41281F" transform="translate(25,20)"/>
<path d="M0 0 C0.66 0.33 1.32 0.66 2 1 C2 3.64 2 6.28 2 9 C1.01 9.495 1.01 9.495 0 10 C0 9.34 0 8.68 0 8 C-0.99 8 -1.98 8 -3 8 C-3.33 9.32 -3.66 10.64 -4 12 C-3.67 9.36 -3.34 6.72 -3 4 C-2.67 4.99 -2.34 5.98 -2 7 C-1.34 7 -0.68 7 0 7 C0 4.69 0 2.38 0 0 Z " fill="#221D1B" transform="translate(37,19)"/>
<path d="M0 0 C0.66 0.33 1.32 0.66 2 1 C1.48041715 5.37934119 0.94324258 9.68803391 0 14 C-2.46751239 10.29873141 -2.30721156 8.37776468 -2 4 C-1 1.5625 -1 1.5625 0 0 Z " fill="#AB7774" transform="translate(42,4)"/>
<path d="M0 0 C1 2 1 2 0.0625 5.125 C-0.288125 6.07375 -0.63875 7.0225 -1 8 C-2.98 8.33 -4.96 8.66 -7 9 C-6.34 6.69 -5.68 4.38 -5 2 C-4.67 2.99 -4.34 3.98 -4 5 C-3.01 5 -2.02 5 -1 5 C-0.67 3.35 -0.34 1.7 0 0 Z " fill="#0A0806" transform="translate(42,35)"/>
<path d="M0 0 C0.99 0 1.98 0 3 0 C2.5020163 3.73487777 2.12508244 5.81237635 0 9 C-0.33 7.68 -0.66 6.36 -1 5 C-2.65 5.33 -4.3 5.66 -6 6 C-4 4 -2 2 0 0 Z " fill="#362F2B" transform="translate(34,37)"/>
<path d="M0 0 C0.33 0.66 0.66 1.32 1 2 C1.99 2 2.98 2 4 2 C4.66 1.34 5.32 0.68 6 0 C6.33 2.31 6.66 4.62 7 7 C5.68 7 4.36 7 3 7 C3 6.01 3 5.02 3 4 C2.01 3.67 1.02 3.34 0 3 C0 2.01 0 1.02 0 0 Z " fill="#C99985" transform="translate(26,29)"/>
<path d="M0 0 C0.66 0.99 1.32 1.98 2 3 C2.66 3.66 3.32 4.32 4 5 C4 5.99 4 6.98 4 8 C2.02 8.99 2.02 8.99 0 10 C-1.36952673 7.26094655 -1.12621361 5.02912668 -1 2 C-0.67 1.34 -0.34 0.68 0 0 Z " fill="#0E0A08" transform="translate(5,20)"/>
<path d="M0 0 C2.31 0 4.62 0 7 0 C6.67 1.32 6.34 2.64 6 4 C4.35 4 2.7 4 1 4 C0.67 2.68 0.34 1.36 0 0 Z " fill="#935348" transform="translate(18,36)"/>
<path d="M0 0 C0.99 0.33 1.98 0.66 3 1 C3 1.99 3 2.98 3 4 C4.32 3.67 5.64 3.34 7 3 C7 4.98 7 6.96 7 9 C6.34 8.01 5.68 7.02 5 6 C2.43717258 5.27034634 2.43717258 5.27034634 0 5 C0 3.35 0 1.7 0 0 Z " fill="#927E77" transform="translate(26,23)"/>
<path d="M0 0 C0.391875 0.515625 0.78375 1.03125 1.1875 1.5625 C2.0846875 2.2740625 2.0846875 2.2740625 3 3 C5.55936559 2.67147918 5.55936559 2.67147918 8 2 C8.66 2.33 9.32 2.66 10 3 C10 3.66 10 4.32 10 5 C8.35 4.67 6.7 4.34 5 4 C4.67 4.66 4.34 5.32 4 6 C2.68 5.34 1.36 4.68 0 4 C0 2.68 0 1.36 0 0 Z " fill="#110D0B" transform="translate(6,39)"/>
<path d="M0 0 C0.99 0.495 0.99 0.495 2 1 C2 2.32 2 3.64 2 5 C3.32 5.66 4.64 6.32 6 7 C5 8 5 8 2.4375 8.0625 C1.633125 8.041875 0.82875 8.02125 0 8 C0 5.36 0 2.72 0 0 Z " fill="#D2AC9B" transform="translate(9,27)"/>
<path d="M0 0 C2.475 0.495 2.475 0.495 5 1 C4.1875 2.9375 4.1875 2.9375 3 5 C2.01 5.33 1.02 5.66 0 6 C0 4.02 0 2.04 0 0 Z " fill="#614748" transform="translate(42,27)"/>
<path d="M0 0 C0.66 1.32 1.32 2.64 2 4 C1.34 4.66 0.68 5.32 0 6 C-2.125 5.625 -2.125 5.625 -4 5 C-4.33 3.68 -4.66 2.36 -5 1 C-4.34 1 -3.68 1 -3 1 C-3 1.66 -3 2.32 -3 3 C-2.34 3 -1.68 3 -1 3 C-0.67 2.01 -0.34 1.02 0 0 Z " fill="#2C2826" transform="translate(11,21)"/>
<path d="M0 0 C1.37432457 3.81756824 0.67975039 7.07255329 0 11 C-0.66 10.67 -1.32 10.34 -2 10 C-2.25 3.375 -2.25 3.375 0 0 Z " fill="#9C7571" transform="translate(8,4)"/>
<path d="M0 0 C2 3 2 3 1.625 5.1875 C1.41875 5.785625 1.2125 6.38375 1 7 C0.01 7 -0.98 7 -2 7 C-1.125 2.25 -1.125 2.25 0 0 Z " fill="#372022" transform="translate(40,33)"/>
<path d="M0 0 C0.99 0 1.98 0 3 0 C2.625 2.9375 2.625 2.9375 2 6 C1.01 6.495 1.01 6.495 0 7 C0 4.69 0 2.38 0 0 Z " fill="#BCA9A0" transform="translate(38,29)"/>
<path d="M0 0 C0.66 0 1.32 0 2 0 C1.6875 3.375 1.6875 3.375 1 7 C0.01 7.66 -0.98 8.32 -2 9 C-1.34 6.03 -0.68 3.06 0 0 Z " fill="#63656E" transform="translate(44,14)"/>
<path d="M0 0 C1.65 0 3.3 0 5 0 C3.6875 2 3.6875 2 2 4 C1.01 4 0.02 4 -1 4 C-0.67 2.68 -0.34 1.36 0 0 Z " fill="#654545" transform="translate(4,3)"/>
</svg>
